<?xml version="1.0" encoding="utf-8"?>
<!-- Generator: Adobe Illustrator 24.0.1, SVG Export Plug-In . SVG Version: 6.00 Build 0)  -->
<svg version="1.1" xmlns="http://www.w3.org/2000/svg" xmlns:xlink="http://www.w3.org/1999/xlink" x="0px" y="0px"
	 viewBox="0 0 1800 760" style="enable-background:new 0 0 1800 760;" xml:space="preserve">
<style type="text/css">
	.st0{fill:none;stroke:#BDBDBD;stroke-width:3;stroke-miterlimit:10;}
	.st1{fill:none;stroke:#BDBDBD;stroke-width:2;stroke-miterlimit:10;}
	.st2{fill:none;stroke:#BDBDBD;stroke-width:0.5;stroke-miterlimit:10;}
	.st3{fill:none;stroke:#BDBDBD;stroke-width:4;stroke-miterlimit:10;}
	.st4{fill:#FFFFFF;stroke:#BDBDBD;stroke-width:3;stroke-miterlimit:10;}
	.st5{fill:none;stroke:#616262;stroke-width:2;stroke-miterlimit:10;}
	.st6{fill:#FFFFFF;stroke:#616262;stroke-width:3;stroke-miterlimit:10;}
	.st7{fill:none;stroke:#616262;stroke-width:3;stroke-miterlimit:10;}
	.st8{fill:#616262;}
	.st9{fill:none;stroke:#EF9A9A;stroke-width:3;stroke-miterlimit:10;}
	.st10{fill:#EF9A9A;stroke:#EF9A9A;stroke-miterlimit:10;}
	.st11{fill:#EF9A9A;}
	.st12{fill:none;stroke:#616262;stroke-miterlimit:10;}
	.st13{fill:#2962FF;stroke:#2962FF;stroke-miterlimit:10;}
	.st14{font-family:'MyriadPro-Regular';}
	.st15{font-size:33.7098px;}
	.st16{fill:#616261;}
	.st17{fill:none;stroke:#FCC26B;stroke-width:2;stroke-miterlimit:10;}
	.st18{fill:#616262;stroke:#616262;stroke-width:3;stroke-miterlimit:10;}
	.st19{fill:#616261;stroke:#616261;stroke-miterlimit:10;}
	.st20{fill:#FFFFFF;stroke:#616261;stroke-width:3;stroke-miterlimit:10;}
	.st21{fill:none;stroke:#52DEB8;stroke-width:3;stroke-miterlimit:10;}
	.st22{fill:#E0E0E0;stroke:#616262;stroke-width:3;stroke-miterlimit:10;}
	.st23{fill:#52DEB8;}
	.st24{fill:#52DEB8;stroke:#52DEB8;stroke-width:3;stroke-miterlimit:10;}
	.st25{fill:#E0E0E0;}
	.st26{fill:#FFFFFF;}
	.st27{fill:#2962FF;}
	.st28{fill:#EF9A9A;stroke:#EF9A9A;stroke-width:3;stroke-miterlimit:10;}
</style>
<g id="Layer_1">
	<line class="st0" x1="831.8" y1="354.7" x2="831.8" y2="493.8"/>
	<polyline class="st1" points="1660.7,495.5 1660.7,424.7 1626.4,424.7 1626.4,495.5 	"/>
	<polyline class="st0" points="1494.4,434.1 1613,325 1730.4,434.1 	"/>
	<circle class="st1" cx="1612.5" cy="379.1" r="16.5"/>
	<circle class="st1" cx="1612.4" cy="379.1" r="13.5"/>
	<line class="st1" x1="1612.4" y1="365.6" x2="1612.4" y2="392.6"/>
	<line class="st1" x1="1598.9" y1="378.1" x2="1625.8" y2="378.1"/>
	<line class="st0" x1="403.6" y1="374.6" x2="689.4" y2="374.6"/>
	<line class="st2" x1="464.1" y1="388.8" x2="464.1" y2="403"/>
	<line class="st2" x1="404" y1="386.9" x2="584.4" y2="385.1"/>
	<line class="st2" x1="406.4" y1="404.9" x2="689.4" y2="404.9"/>
	<line class="st2" x1="453.4" y1="423.9" x2="473.1" y2="423.9"/>
	<line class="st2" x1="450.2" y1="446.4" x2="469.9" y2="446.4"/>
	<line class="st2" x1="556.2" y1="423.7" x2="575.9" y2="423.7"/>
	<line class="st2" x1="433.9" y1="469.2" x2="689.4" y2="469.2"/>
	<line class="st2" x1="433.9" y1="449.9" x2="684.4" y2="449.9"/>
	<line class="st2" x1="430.3" y1="423.7" x2="689.4" y2="423.7"/>
	<line class="st2" x1="410.6" y1="378" x2="410.6" y2="384.3"/>
	<line class="st2" x1="425.4" y1="378.2" x2="425.4" y2="384.5"/>
	<line class="st2" x1="439.4" y1="378.2" x2="439.4" y2="384.5"/>
	<line class="st2" x1="418.5" y1="389.1" x2="418.5" y2="402"/>
	<line class="st2" x1="409.9" y1="407.5" x2="409.9" y2="413.8"/>
	<line class="st2" x1="448.5" y1="389.1" x2="448.5" y2="403.4"/>
	<line class="st2" x1="433.7" y1="389.8" x2="433.7" y2="402.4"/>
	<line class="st2" x1="461.8" y1="477.3" x2="461.8" y2="490.2"/>
	<line class="st2" x1="453.4" y1="452.9" x2="453.4" y2="465.8"/>
	<line class="st2" x1="477.6" y1="451.4" x2="477.6" y2="464.3"/>
	<line class="st2" x1="530.5" y1="477.7" x2="530.5" y2="492"/>
	<line class="st2" x1="587.6" y1="427.2" x2="587.6" y2="441.5"/>
	<line class="st2" x1="561.7" y1="428" x2="561.7" y2="442.3"/>
	<line class="st2" x1="461.8" y1="428.3" x2="461.8" y2="442.6"/>
	<line class="st2" x1="535.8" y1="426.8" x2="535.8" y2="441.1"/>
	<line class="st2" x1="658.2" y1="429.6" x2="658.2" y2="443.9"/>
	<line class="st2" x1="678.3" y1="429.6" x2="678.3" y2="443.9"/>
	<line class="st2" x1="521.7" y1="426.9" x2="521.7" y2="441.2"/>
	<line class="st2" x1="504" y1="426.9" x2="504" y2="441.2"/>
	<line class="st2" x1="577.5" y1="389.8" x2="577.5" y2="404.1"/>
	<line class="st2" x1="560.2" y1="389.8" x2="560.2" y2="404.1"/>
	<line class="st2" x1="683.2" y1="388.1" x2="683.2" y2="402.4"/>
	<line class="st2" x1="666.4" y1="387.4" x2="666.4" y2="401.7"/>
	<line class="st2" x1="542.1" y1="388.5" x2="542.1" y2="402.8"/>
	<line class="st2" x1="525.3" y1="387.7" x2="525.3" y2="402"/>
	<line class="st2" x1="512.1" y1="389.8" x2="512.1" y2="404.1"/>
	<line class="st2" x1="495.7" y1="389.1" x2="495.7" y2="403.4"/>
	<line class="st2" x1="478.5" y1="389.1" x2="478.5" y2="403.4"/>
	<line class="st2" x1="528.4" y1="455.6" x2="528.4" y2="461.8"/>
	<line class="st2" x1="511.6" y1="449.9" x2="511.6" y2="456.1"/>
	<line class="st2" x1="536.8" y1="408.2" x2="536.8" y2="414.4"/>
	<line class="st2" x1="584.4" y1="412.7" x2="584.4" y2="419"/>
	<line class="st2" x1="569.6" y1="411.1" x2="569.6" y2="417.3"/>
	<line class="st2" x1="549.9" y1="411.3" x2="549.9" y2="417.6"/>
	<line class="st2" x1="669.9" y1="411.2" x2="669.9" y2="417.4"/>
	<line class="st2" x1="683" y1="414.3" x2="683" y2="420.6"/>
	<line class="st2" x1="519" y1="410.2" x2="519" y2="416.4"/>
	<line class="st2" x1="650.5" y1="413.3" x2="650.5" y2="419.6"/>
	<line class="st2" x1="504" y1="411.3" x2="504" y2="417.6"/>
	<line class="st2" x1="485.6" y1="411.1" x2="485.6" y2="417.3"/>
	<line class="st2" x1="601" y1="379.2" x2="601" y2="385.4"/>
	<line class="st2" x1="584.4" y1="378.8" x2="584.4" y2="385.1"/>
	<line class="st2" x1="567.6" y1="378.8" x2="567.6" y2="385.1"/>
	<line class="st2" x1="552.4" y1="378.8" x2="552.4" y2="385.1"/>
	<line class="st2" x1="535.8" y1="378.8" x2="535.8" y2="385.1"/>
	<line class="st2" x1="519" y1="379.2" x2="519" y2="385.4"/>
	<line class="st2" x1="502.9" y1="379.2" x2="502.9" y2="385.4"/>
	<line class="st2" x1="485.6" y1="378.5" x2="485.6" y2="384.7"/>
	<line class="st2" x1="469.4" y1="378.5" x2="469.4" y2="384.7"/>
	<line class="st2" x1="454.8" y1="378.8" x2="454.8" y2="385.1"/>
	<line class="st2" x1="580.8" y1="456.2" x2="580.8" y2="462.5"/>
	<line class="st2" x1="560.8" y1="459.4" x2="560.8" y2="465.6"/>
	<line class="st2" x1="543" y1="458.7" x2="543" y2="465"/>
	<line class="st2" x1="650.5" y1="456.4" x2="650.5" y2="462.6"/>
	<line class="st2" x1="689.4" y1="456.4" x2="689.4" y2="462.6"/>
	<line class="st2" x1="669.9" y1="456.2" x2="669.9" y2="462.5"/>
	<line class="st2" x1="589.4" y1="477.7" x2="589.4" y2="492"/>
	<line class="st2" x1="571.6" y1="477.1" x2="571.6" y2="491.4"/>
	<line class="st2" x1="550.6" y1="476.8" x2="550.6" y2="491.1"/>
	<line class="st2" x1="642.6" y1="476.5" x2="642.6" y2="490.8"/>
	<line class="st2" x1="659.1" y1="477.3" x2="659.1" y2="491.6"/>
	<line class="st2" x1="679" y1="477.3" x2="679" y2="491.6"/>
	<path class="st3" d="M-56.7,491.4c0,0,765.4,10.6,942.3,4.6s699.5,10.6,817.1,8.1c117.7-2.4,142.4,0,142.4,0"/>
	<polyline class="st1" points="977.7,491.6 977.7,419.4 932.5,419.4 932.5,491.6 	"/>
	<path class="st4" d="M810.4,348c31.5-21.9,62.9-43.9,94.4-65.8c30.8,22.1,61.7,44.1,92.5,66.2"/>
	<polyline class="st0" points="857.8,310.4 857.8,284.6 848.9,284.6 848.9,315.5 	"/>
	<rect x="217.9" y="404.5" class="st1" width="37.2" height="33.1"/>
	<circle class="st1" cx="199.6" cy="415.5" r="3.9"/>
	<circle class="st1" cx="273.5" cy="415.5" r="3.9"/>
	<circle class="st1" cx="903.9" cy="410.9" r="3.9"/>
	<line class="st0" x1="122" y1="366.5" x2="120.9" y2="491"/>
	<line class="st0" x1="111.3" y1="385" x2="110.4" y2="490.4"/>
	<polyline class="st0" points="98.4,375.9 231.7,253.2 363.6,375.9 	"/>
	<line class="st2" x1="330" y1="457.2" x2="394.5" y2="457.2"/>
	<line class="st2" x1="378" y1="365.9" x2="397.6" y2="365.9"/>
	<line class="st2" x1="329.3" y1="388" x2="393.8" y2="388"/>
	<line class="st2" x1="330" y1="411" x2="394.5" y2="411"/>
	<line class="st2" x1="330.7" y1="433" x2="395.2" y2="433"/>
	<line class="st0" x1="316.5" y1="351.5" x2="410.9" y2="351.9"/>
	<line class="st0" x1="401.6" y1="354.2" x2="401.6" y2="493.1"/>
	<ellipse class="st4" cx="90.5" cy="425.4" rx="37.3" ry="53.6"/>
	<circle class="st1" cx="162" cy="360.1" r="18.6"/>
	<circle class="st1" cx="161.9" cy="360.1" r="15.2"/>
	<line class="st1" x1="161.9" y1="344.9" x2="161.9" y2="375.2"/>
	<line class="st1" x1="146.8" y1="359" x2="177" y2="359"/>
	<polyline class="st1" points="142.7,489.4 142.7,409.8 181.4,409.8 181.4,489.4 	"/>
	<line class="st5" x1="505" y1="475.1" x2="507" y2="474.6"/>
	<line class="st1" x1="90.5" y1="392.4" x2="90.5" y2="490.4"/>
	<line class="st1" x1="90.5" y1="417" x2="103.6" y2="408.7"/>
	<line class="st1" x1="90.5" y1="404.4" x2="77.1" y2="397.5"/>
	<line class="st1" x1="90.5" y1="459" x2="120" y2="445.8"/>
	<line class="st1" x1="114.2" y1="448.4" x2="116.9" y2="439.2"/>
	<line class="st2" x1="372.1" y1="353.8" x2="372.1" y2="361.4"/>
	<line class="st2" x1="382.8" y1="368.9" x2="382.8" y2="386.2"/>
	<line class="st2" x1="383.1" y1="413.4" x2="383.1" y2="429"/>
	<line class="st2" x1="382.7" y1="463" x2="382.7" y2="472.5"/>
	<line class="st2" x1="390.4" y1="437.5" x2="390.4" y2="447"/>
	<line class="st2" x1="1482.4" y1="419.6" x2="1482.4" y2="425.1"/>
	<line class="st2" x1="1469.5" y1="419.8" x2="1469.5" y2="425.3"/>
	<line class="st2" x1="1475.5" y1="429.3" x2="1475.5" y2="440.5"/>
	<line class="st2" x1="1483.1" y1="445.4" x2="1483.1" y2="450.8"/>
	<line class="st2" x1="597.6" y1="454.7" x2="597.6" y2="461"/>
	<rect x="884.4" y="321.7" class="st1" width="39.8" height="18.4"/>
	<ellipse class="st4" cx="816" cy="411.4" rx="37.3" ry="62.2"/>
	<line class="st1" x1="816" y1="418.4" x2="802.6" y2="410.3"/>
	<line class="st1" x1="816" y1="436.1" x2="845.5" y2="420.8"/>
	<line class="st1" x1="634.8" y1="430" x2="637.5" y2="419.2"/>
	<polyline class="st1" points="858.8,404.7 887.2,404.7 887.2,437.5 853.9,437.5 	"/>
	<ellipse class="st4" cx="1508.2" cy="420.4" rx="44.7" ry="64.2"/>
	<line class="st1" x1="1508.2" y1="382.8" x2="1508.2" y2="500.2"/>
	<line class="st1" x1="1508.2" y1="410.3" x2="1492.6" y2="400.4"/>
	<line class="st1" x1="1508.2" y1="395.2" x2="1524.3" y2="386.9"/>
	<line class="st1" x1="1508.2" y1="460.6" x2="1472.9" y2="444.8"/>
	<line class="st1" x1="1479.9" y1="447.9" x2="1476.6" y2="436.8"/>
	<line class="st0" x1="1526.9" y1="483" x2="1527" y2="501.1"/>
	<line class="st0" x1="1703" y1="419.6" x2="1703.6" y2="497.9"/>
	<circle class="st1" cx="1611.5" cy="432.8" r="3.5"/>
	<polyline class="st1" points="1556.5,424.7 1595.9,424.7 1595.9,447.1 1552.2,447.1 	"/>
	<line class="st2" x1="990.9" y1="420.4" x2="1460.7" y2="420.4"/>
	<line class="st2" x1="990.9" y1="448.1" x2="1460.7" y2="448.1"/>
	<line class="st2" x1="990.9" y1="474.1" x2="1473.3" y2="474.1"/>
	<line class="st2" x1="1374.4" y1="397.8" x2="1374.4" y2="412.8"/>
	<line class="st2" x1="1441.8" y1="479.7" x2="1441.8" y2="494.7"/>
	<line class="st2" x1="1469.5" y1="480" x2="1469.5" y2="495"/>
	<line class="st2" x1="1410.8" y1="478.3" x2="1410.8" y2="493.4"/>
	<line class="st2" x1="1201.9" y1="477.3" x2="1201.9" y2="492.4"/>
	<line class="st2" x1="1426.5" y1="453.6" x2="1426.5" y2="468.6"/>
	<line class="st2" x1="1456.8" y1="453.8" x2="1456.8" y2="468.8"/>
	<line class="st2" x1="1401.4" y1="453.6" x2="1401.4" y2="468.6"/>
	<line class="st2" x1="1369.2" y1="453.6" x2="1369.2" y2="468.6"/>
	<line class="st2" x1="1344.4" y1="453.8" x2="1344.4" y2="468.8"/>
	<line class="st2" x1="1318" y1="453.8" x2="1318" y2="468.8"/>
	<line class="st2" x1="1295.7" y1="453.3" x2="1295.7" y2="468.4"/>
	<line class="st2" x1="1268.8" y1="453.3" x2="1268.8" y2="468.4"/>
	<line class="st2" x1="1243.7" y1="453.3" x2="1243.7" y2="468.4"/>
	<line class="st2" x1="1211.5" y1="453.3" x2="1211.5" y2="468.4"/>
	<line class="st2" x1="1191.9" y1="454.3" x2="1191.9" y2="469.3"/>
	<line class="st2" x1="1165.5" y1="454.3" x2="1165.5" y2="469.3"/>
	<line class="st2" x1="1143.2" y1="453.8" x2="1143.2" y2="468.8"/>
	<line class="st2" x1="1116.2" y1="453.8" x2="1116.2" y2="468.8"/>
	<line class="st2" x1="1091.1" y1="453.8" x2="1091.1" y2="468.8"/>
	<line class="st2" x1="1059" y1="453.8" x2="1059" y2="468.8"/>
	<line class="st2" x1="1038.5" y1="454.9" x2="1038.5" y2="469.9"/>
	<line class="st2" x1="1008.1" y1="454.9" x2="1008.1" y2="469.9"/>
	<line class="st2" x1="1440.3" y1="427.4" x2="1440.3" y2="442.4"/>
	<line class="st2" x1="1414.3" y1="426.6" x2="1414.3" y2="441.6"/>
	<line class="st2" x1="1389.1" y1="426.6" x2="1389.1" y2="441.6"/>
	<line class="st2" x1="1452.2" y1="397.8" x2="1452.2" y2="412.8"/>
	<line class="st2" x1="1426.5" y1="397.8" x2="1426.5" y2="412.8"/>
	<line class="st2" x1="1401.4" y1="397.8" x2="1401.4" y2="412.8"/>
	<line class="st2" x1="1219.6" y1="398.3" x2="1219.6" y2="413.3"/>
	<line class="st2" x1="1344.4" y1="398.3" x2="1344.4" y2="413.3"/>
	<line class="st2" x1="1320.2" y1="398.3" x2="1320.2" y2="413.3"/>
	<line class="st2" x1="1297.4" y1="398.3" x2="1297.4" y2="413.3"/>
	<line class="st2" x1="1271.7" y1="398.3" x2="1271.7" y2="413.3"/>
	<line class="st2" x1="1246.5" y1="398.3" x2="1246.5" y2="413.3"/>
	<line class="st2" x1="1164" y1="398" x2="1164" y2="413.1"/>
	<line class="st2" x1="1190.9" y1="398" x2="1190.9" y2="413.1"/>
	<line class="st2" x1="1134" y1="398.5" x2="1134" y2="413.5"/>
	<line class="st2" x1="1109.7" y1="398.5" x2="1109.7" y2="413.5"/>
	<line class="st2" x1="1086.7" y1="399.1" x2="1086.7" y2="414.1"/>
	<line class="st2" x1="1056.7" y1="399.5" x2="1056.7" y2="414.5"/>
	<line class="st2" x1="1032.4" y1="399.5" x2="1032.4" y2="414.5"/>
	<line class="st2" x1="1001.8" y1="399.5" x2="1001.8" y2="414.5"/>
	<line class="st0" x1="987.2" y1="344.2" x2="987.2" y2="490.5"/>
	<line class="st2" x1="1312" y1="480" x2="1312" y2="495"/>
	<line class="st2" x1="1281.1" y1="478.7" x2="1281.1" y2="493.7"/>
	<line class="st2" x1="1257" y1="478.7" x2="1257" y2="493.7"/>
	<line class="st2" x1="1226" y1="477.3" x2="1226" y2="492.4"/>
	<line class="st2" x1="1388" y1="480" x2="1388" y2="495"/>
	<line class="st2" x1="1359.8" y1="478.7" x2="1359.8" y2="493.7"/>
	<line class="st2" x1="1337.5" y1="478.7" x2="1337.5" y2="493.7"/>
	<line class="st2" x1="1100.5" y1="479.3" x2="1100.5" y2="494.4"/>
	<line class="st2" x1="1069.6" y1="478" x2="1069.6" y2="493"/>
	<line class="st2" x1="1042.4" y1="478" x2="1042.4" y2="493"/>
	<line class="st2" x1="1021.3" y1="478.8" x2="1021.3" y2="493.9"/>
	<line class="st2" x1="996.3" y1="478" x2="996.3" y2="493"/>
	<line class="st2" x1="1176.5" y1="479.3" x2="1176.5" y2="494.4"/>
	<line class="st2" x1="1148.3" y1="478" x2="1148.3" y2="493"/>
	<line class="st2" x1="1126" y1="478" x2="1126" y2="493"/>
	<line class="st2" x1="1358.2" y1="427.4" x2="1358.2" y2="442.4"/>
	<line class="st2" x1="1333.2" y1="427" x2="1333.2" y2="442"/>
	<line class="st2" x1="1307.6" y1="427.8" x2="1307.6" y2="442.8"/>
	<line class="st2" x1="1285.5" y1="427.8" x2="1285.5" y2="442.8"/>
	<line class="st2" x1="1259.5" y1="427" x2="1259.5" y2="442"/>
	<line class="st2" x1="1234.4" y1="427" x2="1234.4" y2="442"/>
	<line class="st2" x1="1203.5" y1="427.8" x2="1203.5" y2="442.8"/>
	<line class="st2" x1="1176" y1="427.8" x2="1176" y2="442.8"/>
	<line class="st2" x1="1151" y1="427.4" x2="1151" y2="442.4"/>
	<line class="st2" x1="1125.4" y1="428.2" x2="1125.4" y2="443.2"/>
	<line class="st2" x1="1103.4" y1="428.2" x2="1103.4" y2="443.2"/>
	<line class="st2" x1="1077.3" y1="427.4" x2="1077.3" y2="442.4"/>
	<line class="st2" x1="1052.2" y1="427.4" x2="1052.2" y2="442.4"/>
	<line class="st2" x1="1021.3" y1="430.3" x2="1021.3" y2="445.3"/>
	<line class="st2" x1="990.9" y1="428.2" x2="990.9" y2="443.2"/>
	<line class="st0" x1="1465.7" y1="391.2" x2="989.9" y2="390.2"/>
	<path class="st6" d="M403.6,434.4"/>
	<path class="st7" d="M398.2,428.6"/>
	<path class="st8" d="M677,380.3l2.3-2.1c1.2-1.1,3-1.2,4.3-0.1c1.1,0.9,1.6,2-0.8,2.9c-4.7,1.6-7.9,0-7.9,0L677,380.3z"/>
	<path class="st6" d="M728.4,248c0,0-20.5-16.3-19.5-33.7s21.7-20.3,30.2-3.6c8.5,16.8,12.7,32.7,12.7,32.7L728.4,248z"/>
	<g>
		<g>
			<path class="st8" d="M718.1,212.6c-0.7,1.8-1.4,3.6-2.2,5.5c-0.4,0.9-0.7,1.8-1.1,2.7c-0.3,0.8-0.7,1.6-0.7,2.4
				c0.1,1.8,2.4,1.7,3.7,1.7c1.6,0,3.4-0.3,4.4-1.6c0.5-0.6-0.4-1.4-0.8-0.8c-0.9,1.1-2.3,1.3-3.7,1.3c-0.4,0-0.8-0.1-1.2-0.1
				c-0.3,0-0.7,0-0.9-0.2c-0.6-0.3-0.1-1.2,0.1-1.6c1.1-3,2.3-6,3.5-9C719.6,212.2,718.4,211.9,718.1,212.6L718.1,212.6z"/>
		</g>
	</g>
	<path class="st9" d="M632.8,287.1c1.6,1.7,3.7,4.3,6,7.6c5.4,7.9,12.5,21.8,13.2,54.5c0.3,15.5,1.7,36.1-4.9,62.5"/>
	<path class="st6" d="M590.1,294.3c0.5-0.4,1.4-1.2,2.2-2.4c6.1-9.9-13.1-24.6-10.6-44.5c0.4-2.8,1.2-8.3,5.6-12.2
		c7.1-6.4,18.7-4.2,21.1-1.2c6.9,8.1,6.7,20.5,5.6,28.1c-1.8,12.8-8,22.2-12.3,27.5C597.9,291.2,594,292.8,590.1,294.3z"/>
	<path class="st6" d="M666.3,340c0,0,7.1,22.9,15.3,17.3c8.1-5.6,2-92,49.8-113.9s71.7,18.3,80.1,46.3c8.4,28,14,101.2,14,101.2"/>
	<path class="st10" d="M712.5,198.4c-1.1,1,14.7-44.3,14.7-44.3l30.5,12.5L743,205.9C743,205.9,725.5,186.2,712.5,198.4z"/>
	<g>
		<g>
			<path class="st8" d="M601.9,252.3c1.5,1.8,3,3.8,4.1,5.9c0.3,0.5,0.5,1.1,0.5,1.6c0,0.1,0,0.4,0,0.4c0.1-0.1-0.1-0.1-0.2-0.1
				c-0.3,0-0.6,0-0.9,0c-1.3,0-2.6-0.1-3.9-0.1c-0.6,0-0.6,1,0,1c1.5,0,3.1,0.1,4.6,0.1c0.6,0,1.3,0.1,1.5-0.6
				c0.2-0.6,0-1.4-0.2-1.9c-0.5-1.3-1.3-2.5-2.1-3.6c-0.8-1.2-1.7-2.3-2.6-3.4C602.2,251.1,601.5,251.8,601.9,252.3L601.9,252.3z"/>
		</g>
	</g>
	<g>
		<g>
			<path class="st8" d="M704.5,215.3c1.2,1.6,3.2,2.1,5.1,1.6c1.7-0.5,4.2-1.3,4.5-3.3c0.1-0.8-1-1.1-1.2-0.3
				c-0.3,1.6-2.2,2.1-3.5,2.5c-1.4,0.4-2.9,0.2-3.9-1c-0.2-0.3-0.5-0.4-0.8-0.2C704.5,214.6,704.3,215.1,704.5,215.3L704.5,215.3z"
				/>
		</g>
	</g>
	<g>
		<g>
			<path class="st8" d="M720.5,210.9c0.6,0.8,1.7,0.6,2.6,0.5c1-0.1,1.9-0.4,2.7-0.8c1.6-0.8,2.8-2.3,3.2-4c0.2-0.8-1-1.1-1.2-0.3
				c-0.3,1.3-1.1,2.4-2.3,3.1c-0.6,0.4-1.3,0.6-2.1,0.8c-0.4,0.1-0.7,0.1-1.1,0.1c-0.2,0-0.4,0-0.6,0c-0.1,0-0.2,0-0.2,0
				c-0.1,0-0.2-0.1-0.1,0c-0.2-0.3-0.5-0.4-0.8-0.2C720.5,210.2,720.3,210.6,720.5,210.9L720.5,210.9z"/>
		</g>
	</g>
	<g>
		<g>
			<path class="st8" d="M722.6,233c2.8,0,5.6-0.5,7.8-2.4c2.1-1.8,2.6-4.5,2.9-7.1c0.1-0.8-1.1-1.1-1.2-0.3
				c-0.3,2.3-0.7,4.8-2.5,6.5c-1.9,1.8-4.5,2.2-7,2.2C721.8,231.8,721.8,233,722.6,233L722.6,233z"/>
		</g>
	</g>
	<g>
		<g>
			<path class="st11" d="M714.6,250.6c-0.3,8.3-1,16.6,0.6,24.8c0.4,2.2,1,4.4,1.7,6.5c0.3,0.8,1,1.3,1.8,1c0.7-0.2,1.3-1.1,1-1.8
				c-1.6-4.7-2.5-9.6-2.6-14.6c-0.1-5.3,0.2-10.6,0.4-15.9C717.6,248.7,714.6,248.7,714.6,250.6L714.6,250.6z"/>
		</g>
	</g>
	<g>
		<g>
			<path class="st11" d="M767.3,236.4c-1.9,3.6-3.9,7.2-5.8,10.9c-1,1.8-2,3.6-2.8,5.6c-0.7,1.9-1,3.8-1.1,5.8
				c-0.1,2.2,0.1,4.3-0.3,6.5c-0.1,0.8,0.2,1.6,1,1.8c0.7,0.2,1.7-0.2,1.8-1c0.4-2.5,0.3-5.1,0.4-7.6c0.1-2.4,0.8-4.5,1.9-6.7
				c2.4-4.6,4.9-9.2,7.4-13.7C770.8,236.2,768.2,234.7,767.3,236.4L767.3,236.4z"/>
		</g>
	</g>
	<path class="st12" d="M593.6,264.5c0.4,1.8,1.9,3.1,3.6,3.3c1.6,0.2,3.2-0.6,4.1-1.9C598.8,265.4,596.2,265,593.6,264.5z"/>
	<g>
		<g>
			<path class="st8" d="M604.1,249.6c0.2-0.8,0.8-1.5,1.5-1.9c0.6-0.4,1.4-0.7,2.1-0.8c1.7-0.1,3.1,1,4.1,2.3
				c0.2,0.3,0.5,0.4,0.9,0.2c0.3-0.2,0.4-0.6,0.2-0.9c-1.3-1.7-3.1-3.1-5.3-3c-1,0.1-1.9,0.4-2.8,1c-0.9,0.6-1.8,1.5-2,2.6
				C602.7,250,603.9,250.4,604.1,249.6L604.1,249.6z"/>
		</g>
	</g>
	<g>
		<g>
			<path class="st8" d="M589.8,249.6c0.2-0.8,0.8-1.5,1.5-1.9c0.6-0.4,1.4-0.7,2.1-0.8c1.7-0.1,3.1,1,4.1,2.3
				c0.2,0.3,0.5,0.4,0.9,0.2c0.3-0.2,0.4-0.6,0.2-0.9c-1.3-1.7-3.1-3.1-5.3-3c-1,0.1-1.9,0.4-2.8,1c-0.9,0.6-1.8,1.5-2,2.6
				C588.4,250,589.7,250.4,589.8,249.6L589.8,249.6z"/>
		</g>
	</g>
	<path class="st6" d="M630,284.7c-9.3-7.1-21.8-8.4-32.8-4.4c-8.5,3.1-20.2,9-25.8,19.9c-9.3,18.1,7.1,51.5,8,57.1
		c0.8,5.6-16.9,37.1-19.1,40.7c-2.2,3.6,5.9,8.8,18.5,8s68-4.4,68.1-5.6c0.2-1.2-4.1-6.8-6.6-12.4c-2.5-5.6-14.9-27.6-1.4-59.7
		C647.4,308.3,641.1,293.1,630,284.7z"/>
	<path class="st9" d="M578.3,291.4c0,0-29.1,21.9-16.9,46.4s36.3,52.9,117.6,44.8"/>
	<text transform="matrix(1 0 0 1 662.9952 204.4119)" class="st13 st14 st15">%</text>
	<text transform="matrix(1 0 0 1 651.7706 151.8753)" class="st13 st14 st15">-</text>
	<text transform="matrix(1 0 0 1 611.0372 175.4827)" class="st13 st14 st15">+</text>
	<path class="st16" d="M612.5,227.3c-0.1-1.2-0.5-2.3-1.3-3.2c-2.1-2.3-7.4-6-17.6-2.2c-14,5.2-20.8,13.4-14.8,18
		c0,0-14.5,3.4-23.5,11.2c-9,7.8,2.3,12,6.3,8.4c0,0-3.2,9,4,9.4c7.2,0.3,22.4-25.7,22.4-25.7S613.3,242,612.5,227.3z"/>
	<path class="st17" d="M588.3,314.8c0.6-2.8,1.6-6.5,3.2-7.2c2.1-0.9,3.1,4.3,5.7,3.9c2.4-0.4,2.6-5.4,5.1-5.9
		c2.7-0.5,3.4,5.6,6.1,5.4c2.8-0.2,3.2-6.4,5.7-6.4c2.9,0,3.8,8.1,6.5,8.3c1.1,0.1,2.9-1.2,5.1-8.3"/>
	<path class="st17" d="M588.9,327.2c0.6-2.8,1.6-6.5,3.2-7.2c2.1-0.9,3.1,4.3,5.7,3.9c2.4-0.4,2.6-5.4,5.1-5.9
		c2.7-0.5,3.4,5.6,6.1,5.4c2.8-0.2,3.2-6.4,5.7-6.4c2.9,0,3.8,8.1,6.5,8.3c1.1,0.1,2.9-1.2,5.1-8.3"/>
	<path class="st17" d="M588.3,339.6c0.6-2.8,1.6-6.5,3.2-7.2c2.1-0.9,3.1,4.3,5.7,3.9c2.4-0.4,2.6-5.4,5.1-5.9
		c2.7-0.5,3.4,5.6,6.1,5.4c2.8-0.2,3.2-6.4,5.7-6.4c2.9,0,3.8,8.1,6.5,8.3c1.1,0.1,2.9-1.2,5.1-8.3"/>
	<g>
		<path class="st18" d="M702.8,474.1c0,0-7.5,134.6-5.1,142.4c2.4,7.8,18,4.7,18,4.7L749,482.3h25c0,0,12.1,116.5,33.5,136.5l14-1.4
			c0,0-7.1-212.3,0-226.6l-29,4.9L702.8,474.1z"/>
		<path class="st19" d="M441.6,228.5c0,0-2.3-12.5,15.5-17.8c17.7-5.3,12.7-4.4,18.8-13c6.1-8.6,11.6-8,28.2-9.1
			c16.6-1.1-2.5-10.4,15.7-26.9s30.3-0.5,31.9,10.8c1.6,11.3-9,23.7-21.8,22.9c-12.8-0.8-19.3-0.7-22,3.5c-2.7,4.2-7.5,25-26.5,17.6
			c0,0-8.2-4-11.8,10.2s-23.8,8.4-23.8,8.4"/>
		<path class="st20" d="M427.6,282.6c0,0,4.8-13.2,3.1-20.1c-1.8-6.9-6.9-20-3.1-29.2c3.8-9.2,13.2-12,19.1-10
			c5.8,2,12.5,6.6,9.4,24.9c-3.1,18.3,8.6,34.3,8.6,34.3S438.8,300.9,427.6,282.6z"/>
		<path class="st21" d="M421.7,278.9c0,0-15.6,12.1-22.7,18.6s-25.9,18.5-34.7,18.2"/>
		<path class="st22" d="M412.5,368.3c0,0-6.1,40-4.7,56.6c0,0-16.6,170.8-12.2,173.5c4.4,2.7,6.4,5.1,10.5,4.1
			c4.1-1,41.3-124.7,43.7-133.2c2-7.2,6.5-21.3,12-21.2c1.4,0,2.5,1,3,1.5c11.2,11,18,92.7,32,144.1c0.6,2.2,1.1,3.9,1.2,4.3
			c5.5,3.5,9,3.4,11.2,2.7c12.4-4.1,10.6-37.6,5.2-149.6c-1.7-35.1-4.2-86.9-4.2-86.6L412.5,368.3z"/>
		<path class="st21" d="M338.6,376.7c0,0,2.4,9.2,16.1,5.9c13.7-3.2,16.8-14.6,20.8-17.5c4.1-2.9,14-6.8,16.2-7.8
			c2.2-1,6.1-6.9,6.1-6.9"/>
		<path class="st18" d="M245.3,369.2c0,0,23.4,199.3,59.5,244c0,0,6.4,9.4,6.9-6.4c0.5-15.8-7.4-178.7,12.6-205.5
			c0,0,8.8-6.8,9.8,13.9c1,20.7-0.7,174.9,7.1,186.8c0,0,9.5,4.1,13.2,0.7c3.7-3.4,11.5-120.7,11.5-120.7s6.1-88.5,0-122
			L245.3,369.2z"/>
		<path class="st6" d="M293.9,246.8c0,0,11.5-8.4,12.9-17c0,0-5.3-8.6,1.1-9.2c6.4-0.5,8.1,1.8,8.1,1.8s2.8-8.6,3.6-9.4
			s19.6-3.3,29.2,4.3c0,0-1,6.6-3.3,12.1c-2.3,5.5-6.9,18.3-17.7,25.4"/>
		<path class="st22" d="M326.7,254.2c0,0-20.6-15.3-54.1,11.7s-44.7,70.9-32.3,110.6l126.1-6.9C366.4,369.6,376.8,280.6,326.7,254.2
			z"/>
		<path class="st6" d="M409.8,376.4c0,0-12.7-51.3-4.1-72.7s14.2-29.5,26.4-23.9c12.2,5.6,12.7,3.1,41.2-7.1
			c28.5-10.2,41.7,48.3,42.2,95.6v4.3L409.8,376.4z"/>
		<g>
			<g>
				<path class="st8" d="M501.8,592.8c-0.4,7.4-0.8,15.1,1.4,22.4c0.5,1.7,1.2,3.4,2.1,4.9c0.9,1.5,2.2,2.6,3.6,3.6
					c2.9,2.1,6.5,3.5,10,3.6c3.8,0.1,7.5-1.4,9.8-4.5c0.5-0.6,0.1-1.7-0.5-2.1c-0.8-0.5-1.6-0.1-2.1,0.5c-1.6,2.1-4.3,3-6.8,3
					c-3.1,0-6.1-1.2-8.6-3c-1.2-0.8-2.2-1.8-3-3c-0.8-1.3-1.3-2.7-1.8-4.2c-0.9-3.2-1.3-6.5-1.5-9.8c-0.1-3.9,0.1-7.7,0.3-11.6
					c0-0.8-0.7-1.5-1.5-1.5C502.4,591.3,501.8,592,501.8,592.8L501.8,592.8z"/>
			</g>
		</g>
		<g>
			<g>
				<path class="st8" d="M401.6,595c0.6,3.5,0.9,7.1,1,10.6c0,3.4,0,7-0.8,10.4c-0.6,2.7-1.9,5-4.1,6.9c-1.9,1.6-4.4,2.5-6.9,2.4
					c-2.8-0.1-5.6-1.5-7.4-3.8c-0.5-0.6-1.6-0.5-2.1,0c-0.6,0.6-0.5,1.5,0,2.1c4,5.1,11.7,6,17,2.5c2.7-1.8,4.7-4.3,5.8-7.3
					c0.6-1.8,0.9-3.7,1.1-5.5c0.2-1.9,0.3-3.9,0.3-5.8c0.1-4.4-0.3-8.9-1.1-13.2c-0.1-0.8-1.1-1.2-1.8-1
					C401.8,593.4,401.5,594.2,401.6,595L401.6,595z"/>
			</g>
		</g>
		<g>
			<g>
				<path class="st8" d="M349.1,600c-0.9,2.7-1.5,5.4-1.8,8.2c-0.2,2.6-0.4,5.6,0.4,8.2c0.7,2.4,2.4,4.3,4.6,5.5
					c2.4,1.3,5.2,1.5,7.9,1c2.7-0.5,5.8-1.7,7.1-4.3c0.4-0.7,0.2-1.6-0.5-2.1c-0.7-0.4-1.7-0.2-2.1,0.5c-0.9,1.7-2.9,2.4-4.6,2.8
					c-2,0.4-4.2,0.4-6-0.5c-1.6-0.8-2.9-2.1-3.5-3.9c-0.6-2.2-0.5-4.7-0.3-6.9c0.2-2.7,0.8-5.3,1.7-7.8c0.3-0.8-0.3-1.6-1-1.8
					C350.2,598.7,349.4,599.2,349.1,600L349.1,600z"/>
			</g>
		</g>
		<g>
			<g>
				<path class="st8" d="M305.1,606c-2.6,4.7-2.5,10.4-0.6,15.2c1,2.5,2.4,4.9,4.3,6.9c2.1,2.1,4.7,3.2,7.7,3.2
					c3.1,0.1,7.3-0.7,8-4.3c0.2-0.8-0.2-1.6-1-1.8c-0.7-0.2-1.7,0.3-1.8,1c-0.4,2.1-3.3,2.2-5,2.1c-2.3,0-4.2-0.9-5.8-2.5
					c-2.9-3-4.6-7.4-4.7-11.6c-0.1-2.4,0.4-4.7,1.6-6.7C308.6,605.9,306,604.3,305.1,606L305.1,606z"/>
			</g>
		</g>
		<g>
			<g>
				<path class="st8" d="M326.5,225.3c1.8-1.1,4-0.6,5.3,1.1c0.2,0.3,0.6,0.2,0.8,0c0.3-0.3,0.2-0.6,0-0.8c-1.6-2.1-4.5-2.6-6.8-1.2
					C325.3,224.7,325.9,225.7,326.5,225.3L326.5,225.3z"/>
			</g>
		</g>
		<g>
			<g>
				<path class="st8" d="M328.3,235.7c1,1.3,2.5,2.1,4,2.4c0.6,0.1,1.6,0.3,2.1-0.1c0.2-0.2,0.3-0.5,0.3-0.8
					c0.1-0.5,0.1-1.1,0.1-1.7c0.2-3.4,0.7-8,4.9-8.7c2.1-0.4,4.1,0.6,5.6,2.1c0.5,0.6,1.4-0.3,0.8-0.8c-2.4-2.4-6.4-3.5-9.3-1.2
					c-3,2.3-3,6.4-3.2,9.9c0,0.1,0,0.2,0,0.4c0,0,0.3,0,0,0c-0.3,0-0.5,0-0.8-0.1c-0.4-0.1-0.9-0.2-1.3-0.4c-0.9-0.4-1.7-1-2.3-1.8
					C328.6,234.3,327.8,235.1,328.3,235.7L328.3,235.7z"/>
			</g>
		</g>
		<g>
			<g>
				<path class="st16" d="M423.9,241.7c0.4-1.3,1.5-2.4,2.9-2.6c1.4-0.3,2.9,0.4,3.6,1.5c0.4,0.6,1.5,0,1-0.6
					c-1.1-1.6-3-2.4-4.9-2.1c-1.8,0.3-3.3,1.8-3.8,3.5C422.5,242.1,423.7,242.4,423.9,241.7L423.9,241.7z"/>
			</g>
		</g>
		<g>
			<g>
				<path class="st16" d="M443.2,241.4c1.9-1,4.7-2.3,6.4-0.3c0.5,0.6,1.3-0.3,0.8-0.8c-0.9-1-2.2-1.4-3.5-1.4
					c-1.6,0.1-3,0.8-4.3,1.5C441.9,240.7,442.5,241.8,443.2,241.4L443.2,241.4z"/>
			</g>
		</g>
		<g>
			<g>
				<path class="st16" d="M437.8,242.4c0.4,1.9-0.2,3.8-1.1,5.5c-0.8,1.6-2,3-2.7,4.6c-0.6,1.5-0.1,3,1.4,3.6
					c1.6,0.7,3.2-0.1,4.6-0.8c0.7-0.4,0.1-1.4-0.6-1c-1.1,0.6-2.8,1.5-4,0.5c-1.3-1,0.4-3.1,1-4c1.6-2.6,3.2-5.5,2.5-8.6
					C438.8,241.3,437.7,241.6,437.8,242.4L437.8,242.4z"/>
			</g>
		</g>
		<g>
			<g>
				<path class="st16" d="M439.7,266c4.3,0.8,8.9-1.6,10.6-5.6c0.3-0.7-0.7-1.3-1-0.6c-1.5,3.5-5.5,5.7-9.3,5
					C439.2,264.7,438.9,265.9,439.7,266L439.7,266z"/>
			</g>
		</g>
		<g>
			<path class="st23" d="M316.2,253.8c2.1,0.4,4.3,0.9,6.3,1.6c0.5,0.2,1.1,0.4,1.4,0.8c0.5,0.6,0.4,1.4,0.3,2.2
				c-0.4,2.9-1.3,5.8-2.6,8.5c-0.1,0.3-0.3,0.6-0.6,0.6c-0.2,0-0.4-0.1-0.5-0.1c-1.2-0.7-2-2-2.6-3.3c-1.5-3.4-2.4-7-2.4-10.7"/>
			<g>
				<path class="st23" d="M315.8,255.2c2.2,0.4,4.4,0.9,6.5,1.7c0.1,0,0.5,0.3,0.4,0.2c0.2,0.2,0.1,0.8,0,1.1
					c-0.2,1.1-0.4,2.2-0.7,3.2c-0.3,1.1-0.6,2.1-1,3.1c-0.2,0.4-0.4,0.9-0.6,1.3c-0.2,0.5-0.5,0.6,0.3,0.3c0.8-0.3,0.5-0.2,0.1-0.4
					c-0.7-0.5-1.1-1.4-1.5-2.1c-0.5-1-0.8-2-1.2-3c-0.8-2.4-1.1-4.8-1.2-7.3c0-1.9-3-1.9-3,0c0,2.8,0.5,5.7,1.4,8.3
					c0.8,2.4,1.8,5.3,4,6.8c0.6,0.4,1.3,0.7,2.1,0.5c0.8-0.2,1.2-0.8,1.5-1.5c0.6-1.2,1.1-2.5,1.5-3.9c0.4-1.3,0.7-2.6,1-4
					c0.2-1.3,0.5-2.8-0.3-4c-0.8-1.3-2.6-1.7-4-2.1c-1.5-0.4-3.1-0.8-4.7-1.1c-0.8-0.1-1.6,0.2-1.8,1
					C314.6,254.1,315,255.1,315.8,255.2L315.8,255.2z"/>
			</g>
		</g>
		<polygon class="st24" points="321,270.6 316.4,320.5 334.5,333.3 340.2,314 		"/>
		<path class="st21" d="M299.8,248.9c0,0-76.6,17.1-74.9,59.5c1.7,42.4,48.5,64.4,93.2,50.8s64.7-25.8,65.8-27.2
			c1-1.3,6.4,0.7,9.8,2.4"/>
		<path class="st21" d="M480.5,271.8c3.5,0.8,17.4,4.5,25.8,17.8c0.7,1.1,6.5,10.7,5.8,21.6c-0.3,4.7-2.8,22.1-61.2,53.3
			c-25.8,13.8-39.6,26.3-62.2,27.6c-4.8,0.3-8.8,0.1-11.6-0.1"/>
		<path class="st23" d="M321.4,214.1c-1.8-1.1-5.3-4.4,0-9c5.3-4.6,34.6-11.2,43.6-4.4c9,6.8,6.6,10.3,3.1,12.4c-3.6,2-7.5,1-7.5,1
			s6.5,3.1,6.7,9c0.2,5.9-15.3,1.5-22.4-3.9C337.8,213.7,321.4,214.1,321.4,214.1z"/>
		<text transform="matrix(1 0 0 1 374.8379 170.4549)" class="st13 st14 st15">%</text>
		<text transform="matrix(1 0 0 1 430.9312 185.2884)" class="st13 st14 st15">-</text>
		<text transform="matrix(1 0 0 1 397.8296 209.9641)" class="st13 st14 st15">+</text>
		<g>
			<g>
				<path class="st8" d="M706.6,614.3c1.1,7.3,2.2,14.9-0.4,22c-2.1,5.7-7.2,10.5-13.5,10.2c-3.7-0.2-6.9-2.6-9.8-4.8
					c-0.7-0.5-1.7-0.1-2.1,0.5c-0.4,0.8-0.1,1.6,0.5,2.1c3,2.2,6.2,4.5,9.9,5c3.5,0.5,7.1-0.4,10.1-2.3c6.4-4.1,9.1-11.7,9.4-19
					c0.2-4.9-0.6-9.8-1.3-14.6c-0.1-0.8-1.1-1.2-1.8-1C706.8,612.7,706.4,613.5,706.6,614.3L706.6,614.3z"/>
			</g>
		</g>
		<g>
			<g>
				<path class="st8" d="M811.6,611.4c0,3.1,0,6.3-0.1,9.4c0,2.8-0.4,5.9,0.6,8.6c1.7,4.8,6.6,7.9,11.7,7.6c3-0.2,5.8-1.4,8.1-3.4
					c0.6-0.5,0.5-1.6,0-2.1c-0.6-0.6-1.5-0.5-2.1,0c-3.1,2.7-7.8,3.4-11.2,1.2c-1.5-0.9-2.9-2.5-3.5-4.1c-0.4-1.1-0.5-2.3-0.5-3.5
					c0-1.4,0-2.8,0-4.2c0-3.2,0-6.3,0.1-9.5C814.6,609.4,811.6,609.4,811.6,611.4L811.6,611.4z"/>
			</g>
		</g>
		<path class="st22" d="M608.8,446.6c1.3,13.5-13.2,175.2-13.2,175.2s7.8,7.8,7.9,6.8s15.6-75.3,16.9-79.6
			c1.3-4.3,13.6-69.8,21-99.3c7.5-29.5,5.6-49.3,5.6-49.3l-86.6-2.4c0,0-3.1,10.2-2.4,26.2c0.8,16,11.4,103.6,79.8,177.2l3.6-13.5
			C641.3,587.9,572.9,502.5,608.8,446.6"/>
		<g>
			<g>
				<path class="st8" d="M597.4,619.3c1.8,5.9,1.6,12.5-0.4,18.4c-0.5,1.4-1.1,2.7-1.9,3.9c-0.7,1-1.6,2-2.8,2.4
					c-2.5,0.7-5-1.9-6.7-3.5c-2-2-4.4-4.4-4.4-7.3c0-1.9-3-1.9-3,0c0.1,3.4,2.1,6.2,4.5,8.6c2.3,2.3,5,5.1,8.5,5.3
					c3.7,0.3,6.2-3,7.7-6c1.5-3.2,2.3-6.8,2.6-10.4c0.4-4.1,0-8.2-1.2-12.2C599.7,616.7,596.8,617.5,597.4,619.3L597.4,619.3z"/>
			</g>
		</g>
		<g>
			<g>
				<path class="st8" d="M633.7,588.7c1.8,3.6,3.6,7.2,5.4,10.8c1.7,3.4,3.5,6.7,4.6,10.3c1,3.5,1.5,7.1,1.3,10.7
					c-0.1,1.7-0.3,3.5-0.8,5.1c-0.2,0.7-0.4,1.4-0.8,2.1c-0.3,0.7-0.7,1.6-1.3,2.1c-1.1,1-3.2,0.7-4.5,0.4c-1.6-0.4-3.1-1.2-4.3-2.5
					c-1.3-1.4-3.5,0.7-2.1,2.1c2.6,2.7,6.5,4.1,10.3,3.4c2-0.3,3.4-1.8,4.3-3.5c0.9-1.8,1.5-3.7,1.8-5.7c0.6-4.1,0.5-8.2-0.4-12.2
					c-0.9-4.1-2.6-7.8-4.4-11.5c-2.2-4.4-4.4-8.8-6.6-13.1c-0.4-0.7-1.4-0.9-2.1-0.5C633.5,587.1,633.3,588,633.7,588.7L633.7,588.7
					z"/>
			</g>
		</g>
		<path class="st17" d="M421.7,311.8c1-2.8,2.8-6.5,5.6-7.2c3.7-0.9,5.6,4.3,10,3.9c4.3-0.4,4.7-5.4,8.9-5.9
			c4.7-0.5,5.9,5.6,10.8,5.4c4.9-0.2,5.6-6.4,10-6.4c5.1,0,6.6,8.1,11.5,8.3c2,0.1,5-1.2,8.9-8.3"/>
		<path class="st17" d="M421.7,327.2c1-2.8,2.8-6.5,5.6-7.2c3.7-0.9,5.6,4.3,10,3.9c4.3-0.4,4.7-5.4,8.9-5.9
			c4.7-0.5,5.9,5.6,10.8,5.4c4.9-0.2,5.6-6.4,10-6.4c5.1,0,6.6,8.1,11.5,8.3c2,0.1,5-1.2,8.9-8.3"/>
		<path class="st17" d="M421.7,341.5c1-2.8,2.8-6.5,5.6-7.2c3.7-0.9,5.6,4.3,10,3.9c4.3-0.4,4.7-5.4,8.9-5.9
			c4.7-0.5,5.9,5.6,10.8,5.4c4.9-0.2,5.6-6.4,10-6.4c5.1,0,6.6,8.1,11.5,8.3c2,0.1,5-1.2,8.9-8.3"/>
		<path class="st13" d="M432.3,326.7c-1.5,0.5-75.2,33-75.2,33l1.2,2.8l75.1-33.2L432.3,326.7z"/>
		<g>
			<g>
				<path class="st25" d="M597,521.8c0.7,2.7,1.5,5.4,2.4,8c0.8,2.6,1.6,5.3,2.6,7.9c0.4,1.2,1.5,2,2.7,1.8c1.2-0.2,2.2-1.2,2.2-2.5
					c0-1.2-0.3-2.2-0.9-3.2c-0.6-1.2-2.3-1.6-3.4-0.9c-1.2,0.8-1.6,2.2-0.9,3.4c0.3,0.6,0-0.3,0.1,0.4c0.1,0.5,0-0.2,0,0.4
					c1.6-0.2,3.3-0.4,4.9-0.7c-0.9-2.6-1.8-5.3-2.6-7.9c-0.8-2.7-1.7-5.3-2.4-8c-0.3-1.3-1.8-2.2-3.1-1.7
					C597.5,519.2,596.7,520.4,597,521.8L597,521.8z"/>
			</g>
		</g>
		<g>
			<g>
				<path class="st25" d="M598.5,538.8c0.9,1.9,1.9,3.7,2.9,5.6c1.3-1,2.6-2,3.9-3c-0.1-0.1-0.2-0.2-0.3-0.2
					c-0.5-0.4-1.1-0.7-1.8-0.7c-0.6,0-1.3,0.3-1.8,0.7c-0.4,0.5-0.8,1.1-0.7,1.8c0,0.6,0.2,1.3,0.7,1.8c0.1,0.1,0.2,0.2,0.3,0.2
					c0.5,0.4,1.1,0.8,1.8,0.7c0.6,0,1.1-0.2,1.5-0.5c1-0.8,1.2-2.1,0.6-3.2c-1-1.8-1.9-3.7-2.9-5.6c-0.3-0.5-0.9-1-1.5-1.1
					c-0.6-0.2-1.4-0.1-1.9,0.3c-0.5,0.3-1,0.9-1.1,1.5C598.1,537.5,598.2,538.2,598.5,538.8L598.5,538.8z"/>
			</g>
		</g>
		<g>
			<g>
				<path class="st25" d="M599.9,543.1c0.4,1,0.8,2.1,1.3,3.1c0.1,0.3,0.2,0.6,0.4,0.9c0.2,0.3,0.4,0.5,0.7,0.6
					c0.3,0.2,0.6,0.3,0.9,0.3c0.3,0.1,0.7,0.1,1,0c0.6-0.2,1.2-0.6,1.5-1.1c0.1-0.2,0.2-0.4,0.3-0.6c0.1-0.4,0.1-0.9,0-1.3
					c0-0.2-0.1-0.4-0.1-0.6c-0.1-0.3-0.2-0.6-0.4-0.9c-0.2-0.3-0.4-0.5-0.7-0.6c-0.3-0.2-0.6-0.3-0.9-0.3c-0.3-0.1-0.7-0.1-1,0
					c-0.6,0.2-1.2,0.6-1.5,1.1c-0.1,0.2-0.2,0.4-0.3,0.6c-0.1,0.4-0.1,0.9,0,1.3c0,0.2,0.1,0.4,0.1,0.6c1.6-0.4,3.2-0.9,4.8-1.3
					c-0.4-1-0.8-2.1-1.3-3.1c-0.1-0.3-0.2-0.6-0.4-0.9c-0.2-0.3-0.4-0.5-0.7-0.6c-0.3-0.2-0.6-0.3-0.9-0.3c-0.3-0.1-0.7-0.1-1,0
					c-0.6,0.2-1.2,0.6-1.5,1.1c-0.1,0.2-0.2,0.4-0.3,0.6C599.8,542.2,599.8,542.6,599.9,543.1L599.9,543.1z"/>
			</g>
		</g>
		<g>
			<g>
				<path class="st25" d="M600.4,544c0.1,1.1,0.2,2.2,0.6,3.3c0.2,0.6,0.5,1.2,0.9,1.7c0.4,0.5,0.8,1,1.2,1.5c0,0.1,0.3,0.4,0.1,0.1
					c-0.2-0.3,0.1,0.1,0.1,0.1c0.1,0.2,0.3,0.4,0.4,0.6c0.3,0.5,0.6,0.9,0.9,1.4c0.6,1,1.2,1.9,1.7,2.9c0.7,1.1,2.3,1.6,3.4,0.9
					c1.1-0.7,1.6-2.2,0.9-3.4c-1.1-1.7-2-3.6-3.3-5.2c-0.4-0.5-0.7-0.9-1.2-1.4c-0.1-0.1-0.2-0.2-0.2-0.3c-0.2-0.2-0.1-0.2,0.1,0.1
					c0,0-0.4-0.5-0.3-0.6c0.1,0.3,0.2,0.4,0.1,0.1c0-0.1-0.1-0.2-0.1-0.3c-0.1-0.2-0.1-0.4-0.2-0.7c0-0.1,0-0.2-0.1-0.3
					c0-0.3,0-0.2,0,0.2c-0.1-0.2-0.1-0.5-0.1-0.7c-0.1-0.7-0.2-1.3-0.7-1.8c-0.4-0.4-1.1-0.8-1.8-0.7
					C601.7,541.5,600.3,542.6,600.4,544L600.4,544z"/>
			</g>
		</g>
		<g>
			<g>
				<path class="st25" d="M609,550.6c-0.2-0.4-0.4-0.7-0.6-1.1c0.1,0.2,0.2,0.4,0.3,0.6c0-0.1-0.1-0.2-0.1-0.3
					c-0.1-0.3-0.2-0.6-0.4-0.9c-0.2-0.3-0.4-0.5-0.7-0.6c-0.3-0.2-0.6-0.3-0.9-0.3c-0.3-0.1-0.7-0.1-1,0c-0.2,0.1-0.4,0.2-0.6,0.3
					c-0.4,0.2-0.7,0.5-0.9,0.9c-0.1,0.2-0.2,0.4-0.3,0.6c-0.1,0.4-0.1,0.9,0,1.3c0.3,0.7,0.6,1.4,0.9,2c0.2,0.3,0.4,0.5,0.6,0.7
					c0.2,0.2,0.5,0.4,0.9,0.4c0.3,0.1,0.7,0.1,1,0c0.3,0,0.6-0.1,0.9-0.3c0.2-0.1,0.3-0.3,0.5-0.4c0.3-0.3,0.5-0.7,0.6-1.1
					c0-0.2,0.1-0.4,0.1-0.7C609.4,551.4,609.2,550.9,609,550.6L609,550.6z"/>
			</g>
		</g>
		<g>
			<g>
				<path class="st25" d="M604.4,552.4C604.4,552.4,604.4,552.5,604.4,552.4c0-0.1-0.2-0.2-0.3-0.4c0.1,0.1,0.1,0.2,0.2,0.4
					c-0.1-0.2-0.2-0.4-0.3-0.6c0.2,0.4,0.3,0.7,0.5,1.1c0,0.1,0.1,0.2,0.1,0.2c0.1,0.2,0.3,0.4,0.5,0.6c0.2,0.2,0.4,0.3,0.6,0.5
					c0.3,0.2,0.6,0.3,0.9,0.3c0.3,0.1,0.7,0.1,1,0c0.3-0.1,0.6-0.2,0.9-0.4c0.3-0.2,0.5-0.4,0.6-0.7c0.1-0.2,0.2-0.4,0.3-0.6
					c0.1-0.4,0.1-0.9,0-1.3c-0.1-0.2-0.2-0.4-0.3-0.6c-0.2-0.4-0.5-0.7-0.9-0.9c0,0,0,0,0,0c0.2,0.1,0.3,0.3,0.5,0.4
					c-0.1,0-0.1-0.1-0.1-0.1c0.1,0.2,0.3,0.3,0.4,0.5c-0.1-0.1-0.1-0.2-0.2-0.3c0.1,0.2,0.2,0.4,0.3,0.6c-0.1-0.3-0.3-0.7-0.4-1
					c0-0.1-0.1-0.1-0.1-0.2c-0.2-0.2-0.3-0.5-0.5-0.7c-0.2-0.2-0.5-0.4-0.8-0.5c-0.3-0.2-0.6-0.2-1-0.2c-0.3,0-0.7,0.1-1,0.2
					c-0.3,0.1-0.6,0.3-0.8,0.5c-0.1,0.2-0.3,0.3-0.4,0.5c-0.2,0.4-0.3,0.8-0.3,1.3c0,0.2,0.1,0.4,0.1,0.7
					C603.8,551.7,604,552.1,604.4,552.4L604.4,552.4z"/>
			</g>
		</g>
		<g>
			<g>
				<path class="st25" d="M611.7,560.2c0.5,0.9,1.1,1.9,1.7,2.8c1.4-0.8,2.9-1.7,4.3-2.5c-1.2-1.8-2.2-4-1.9-6.1
					c-0.1,0.4-0.2,0.8-0.3,1.3c0,0,0.1-0.1,0.1-0.1c-0.7,0.4-1.4,0.8-2.2,1.2c0.1,0,0.1,0,0.2,0c-0.6-0.2-1.2-0.5-1.8-0.7
					c-0.2-0.2,0.2,0.2,0.2,0.3c0.1,0.2,0.3,0.4,0.4,0.7c0.2,0.4,0.4,0.8,0.6,1.2c0.5,1.2,0.9,2.3,1.4,3.5c0.9,2.3,1.8,4.6,2.8,6.9
					c1.4-0.8,2.8-1.6,4.2-2.4c-0.6-0.7-1.3-1.3-2-1.9c-0.3-0.3-0.6-0.5-0.9-0.8c-0.4-0.4-0.4-0.4-0.7-0.9c-0.7-1.2-2.3-1.6-3.4-0.9
					c-1.2,0.7-1.5,2.2-0.9,3.4c0.9,1.9,2,3.7,3.2,5.4c1.3-1,2.6-2,3.9-3c-0.9-1-1.9-2.1-2.8-3.1c-1.9-2.1-5.5,0.7-3.9,3
					c1.7,2.5,3.5,4.8,5.5,7c1-1.3,2-2.6,3-3.9c0.3,0.2,0.1,0.1,0-0.2c0-0.1-0.1-0.2-0.2-0.5c-0.9-2.6-4.9-2.3-4.9,0.7
					c0,0.9,0.2,1.7,0.7,2.6c1.4-0.8,2.9-1.7,4.3-2.5c-0.4-0.6-0.8-1.3-1-1.9c-0.5-1.3-1.7-2.1-3.1-1.7c-1.2,0.3-2.2,1.8-1.7,3.1
					c0.4,1.1,0.9,2.1,1.5,3.1c0.8,1.1,2.2,1.6,3.4,0.9c1.2-0.7,1.5-2.2,0.9-3.4c0,0.1,0,0.6,0,0c-1.6,0.2-3.3,0.4-4.9,0.7
					c0.5,1.5,1.2,2.8,2.5,3.7c1,0.7,2.5,0.3,3.2-0.6c0.8-1,0.7-2.3-0.2-3.3c-1.7-1.9-3.3-3.9-4.7-6c-1.3,1-2.6,2-3.9,3
					c0.9,1,1.9,2.1,2.8,3.1c1.9,2.1,5.6-0.7,3.9-3c-1.2-1.7-2.3-3.5-3.2-5.4c-1.4,0.8-2.9,1.7-4.3,2.5c1.1,1.9,3,3,4.4,4.6
					c1.5,1.9,5.1-0.1,4.2-2.4c-0.9-2.4-1.9-4.7-2.8-7.1c-0.9-2.3-1.7-4.8-3.1-6.8c-0.5-0.7-1-1.3-1.8-1.6c-0.9-0.3-2-0.1-2.6,0.6
					c-1,1-0.9,2.5-0.7,3.8c0.3,2.4,1.1,4.8,2.5,6.8c0.8,1.1,2.2,1.6,3.4,0.9c1.1-0.6,1.7-2.3,0.9-3.4c-0.6-0.9-1.2-1.8-1.7-2.8
					c-0.6-1.2-2.3-1.6-3.4-0.9C611.4,557.4,611,559,611.7,560.2L611.7,560.2z"/>
			</g>
		</g>
		<g>
			<g>
				<path class="st25" d="M611.2,555.2c0.1,0.1,0.2,0.2,0.2,0.2c0.1,0.1,0.3,0.3,0,0c-0.3-0.3,0,0,0,0.1c0,0.1,0.1,0.1,0.1,0.2
					c0.1,0.2,0.2,0.3,0.3,0.5c0,0.1,0.1,0.2,0.1,0.3c0-0.1-0.2-0.6-0.1-0.2c0.3,0.8,0.5,1.6,0.8,2.3c0.4,0.9,0.8,1.8,1.4,2.6
					c0.2,0.3,0.5,0.6,0.7,0.9c0.2,0.3-0.1-0.1-0.1-0.2c0.1,0.1,0.1,0.2,0.2,0.3c0.1,0.2,0.3,0.4,0.4,0.5c0.1,0.2,0.4,0.9,0.1,0.2
					c0.3,0.6,0.5,1.1,1.1,1.5c0.5,0.3,1.3,0.4,1.9,0.3c0.6-0.2,1.2-0.6,1.5-1.1c0.3-0.6,0.5-1.3,0.3-1.9c-0.2-0.6-0.5-1.2-0.8-1.7
					c-0.1-0.2-0.3-0.4-0.4-0.6c-0.2-0.2-0.4-0.5-0.5-0.7c0.1,0.1,0.3,0.4,0.1,0.2c-0.3-0.4-0.6-0.8-0.8-1.2
					c-0.1-0.2-0.2-0.4-0.3-0.5c-0.1-0.3,0.2,0.6,0.1,0.2c0-0.1-0.1-0.2-0.1-0.3c-0.7-1.9-1.3-3.9-2.8-5.4c-0.9-0.9-2.6-1-3.5,0
					C610.3,552.6,610.2,554.2,611.2,555.2L611.2,555.2z"/>
			</g>
		</g>
		<g>
			<g>
				<path class="st25" d="M613.9,560.8c0.6,0.8,1.2,1.5,1.5,2.4c-0.1-0.2-0.2-0.4-0.3-0.6c0.1,0.1,0.1,0.3,0.2,0.4
					c0.2,0.6,0.6,1.2,1.1,1.5c0.5,0.3,1.3,0.4,1.9,0.3c0.6-0.2,1.2-0.6,1.5-1.1c0.3-0.6,0.4-1.2,0.3-1.9c-0.2-1.1-0.8-2.2-1.4-3.1
					c-0.6-0.9-1.2-1.8-1.8-2.7c-0.4-0.5-0.8-1-1.5-1.1c-0.6-0.2-1.4-0.1-1.9,0.3c-0.5,0.3-1,0.9-1.1,1.5c-0.1,0.6-0.1,1.4,0.3,1.9
					c0.5,0.7,1,1.5,1.5,2.2c0.4,0.7,0.9,1.3,1.2,2c-0.1-0.2-0.2-0.4-0.3-0.6c0.1,0.3,0.2,0.6,0.3,0.9c1.6-0.4,3.2-0.9,4.8-1.3
					c-0.4-1.3-1.1-2.4-1.9-3.5c-0.2-0.3-0.4-0.5-0.6-0.7c-0.2-0.2-0.5-0.4-0.9-0.4c-0.6-0.2-1.4-0.1-1.9,0.3c-0.5,0.3-1,0.9-1.1,1.5
					C613.5,559.5,613.5,560.3,613.9,560.8L613.9,560.8z"/>
			</g>
		</g>
	</g>
	<g>
		<path class="st26" d="M648.1,322.4c7.6-5.2,15.2-10.3,23-15.2c1-0.7,2.4-1.3,3.4-0.7c0.5,0.3,0.8,0.8,1.1,1.3
			c2.2,4,4.4,7.9,6.5,11.9c0.1,0.2,0.3,0.5,0.3,0.8c0,0.5-0.4,0.8-0.7,1.1c-7.5,6.6-15.9,12.3-24.8,17c-0.1,0.1-0.3,0.1-0.4,0.1
			c-0.2,0-0.3-0.2-0.4-0.3c-3.4-4.4-6.4-9.1-9.1-13.9c-0.4-0.6-0.6-1.7,0.1-1.9"/>
		<g>
			<path class="st27" d="M648.6,323.3c4.3-3,8.7-5.9,13.1-8.8c2.2-1.5,4.5-2.9,6.7-4.4c1.1-0.7,2.2-1.4,3.3-2.1
				c0.6-0.4,1.8-1.2,2.5-0.5c0.3,0.3,0.5,0.8,0.8,1.3c0.3,0.6,0.7,1.2,1,1.8c0.6,1.2,1.3,2.3,1.9,3.5c0.6,1.2,1.3,2.3,1.9,3.5
				c0.3,0.5,0.6,1.1,0.9,1.6c0.2,0.3,0.8,1.1,0.7,1.4c-0.1,0.3-0.8,0.8-1.1,1c-0.5,0.4-1,0.8-1.5,1.2c-0.9,0.8-1.9,1.5-2.8,2.3
				c-1.9,1.5-3.8,2.9-5.8,4.3c-2.2,1.6-4.5,3-6.8,4.5c-2.3,1.4-4.7,2.9-7.2,4.1c0.2,0,0.3-0.1,0.5-0.1c0,0-0.1,0-0.1,0
				c0.1,0.1,0.3,0.2,0.4,0.3c-0.5-0.5-0.9-1.1-1.3-1.7c-0.5-0.7-1-1.3-1.4-2c-0.9-1.3-1.8-2.6-2.6-3.9c-0.8-1.3-1.6-2.6-2.4-3.9
				c-0.4-0.7-0.8-1.4-1.2-2.1c-0.1-0.2-0.3-0.5-0.3-0.7c0-0.1,0-0.2,0-0.3c0-0.1-0.1,0.1-0.1,0.1c1.1-0.6,0.1-2.3-1-1.7
				c-1.5,0.8-0.9,2.6-0.2,3.7c0.8,1.5,1.7,3,2.6,4.4c1.8,2.9,3.7,5.7,5.7,8.4c0.5,0.6,0.9,1.5,1.8,1.5c0.8,0,1.7-0.7,2.4-1.1
				c1.5-0.8,3-1.7,4.4-2.5c2.9-1.7,5.6-3.5,8.3-5.4c2.8-2,5.5-4,8.1-6.2c0.6-0.5,1.2-1,1.7-1.5c0.6-0.5,1.3-1,1.7-1.8
				c0.4-0.8,0.1-1.5-0.3-2.2c-0.5-0.8-0.9-1.7-1.4-2.5c-1.7-3.2-3.4-6.4-5.2-9.6c-0.8-1.4-2.2-2.2-3.9-1.7c-1.6,0.5-3,1.6-4.4,2.5
				c-6.9,4.4-13.7,9-20.5,13.6C646.5,322.3,647.5,324,648.6,323.3L648.6,323.3z"/>
		</g>
	</g>
	<line class="st1" x1="836.9" y1="425.3" x2="838.9" y2="414.8"/>
	<path class="st28" d="M716.2,274.2l-15.8,22.4c-0.2,1.7-0.4,4.5-0.8,7.9c-2.2,21.4-4.2,37.1-4.4,38.7c-1.5,12-1.9,45.6,2.1,136.2
		c0,0,53.7,23.9,99.7,1.5c0,0,10.9-73.5,10.4-85.1c-0.5-11.5-46.8-127.2-46.8-127.2L716.2,274.2z"/>
	<path class="st7" d="M684.7,379.5c116.9,43,125.1-69.3,125.1-69.3s4.9-58.3-36.4-70.5"/>
</g>
<g id="Layer_2">
</g>
</svg>
